<svg width="NaN" height="NaN" xmlns="http://www.w3.org/2000/svg" version="1.1">

 <g>
  <title>Layer 1</title>
  <ellipse stroke="#000" ry="182.54827" rx="182" id="svg_1" cy="200.49499" cx="199.99999" fill="#000000"/>
  <g id="svgg">
   <path fill-rule="evenodd" fill="#FFFFFF" d="m95.583,186.333c-0.056,0.092 -0.253,0.167 -0.437,0.167c-0.474,0 -2.16,0.798 -2.491,1.18c-0.152,0.176 -0.354,0.32 -0.447,0.32c-0.093,0 -0.213,0.131 -0.267,0.292c-0.136,0.405 -0.487,0.934 -0.718,1.083c-0.107,0.069 -0.244,0.425 -0.306,0.792c-0.062,0.366 -0.181,0.666 -0.265,0.666c-0.084,0 -0.152,0.75 -0.152,1.667c0,0.917 0.059,1.667 0.13,1.667c0.072,0 0.23,0.337 0.352,0.75c0.122,0.412 0.288,0.75 0.37,0.75c0.081,0 0.148,0.096 0.148,0.213c0,0.436 1.738,1.888 2.545,2.127c0.434,0.128 0.788,0.291 0.788,0.363c0,0.071 0.75,0.13 1.667,0.13c0.917,0 1.667,-0.059 1.667,-0.132c0,-0.073 0.32,-0.218 0.711,-0.322c0.391,-0.105 0.935,-0.383 1.208,-0.618c0.274,-0.235 0.554,-0.428 0.622,-0.428c0.069,0 0.125,-0.094 0.125,-0.21c0,-0.115 0.15,-0.303 0.334,-0.418c0.183,-0.114 0.333,-0.312 0.333,-0.439c0,-0.127 0.112,-0.274 0.25,-0.327c0.138,-0.052 0.25,-0.21 0.25,-0.351c0,-0.14 0.075,-0.255 0.167,-0.255c0.091,0 0.166,-0.375 0.166,-0.833c0,-0.459 0.075,-0.834 0.167,-0.834c0.092,0 0.167,-0.412 0.167,-0.916c0,-0.505 -0.075,-0.917 -0.167,-0.917c-0.092,0 -0.167,-0.338 -0.167,-0.75c0,-0.412 -0.067,-0.75 -0.148,-0.75c-0.082,0 -0.196,-0.187 -0.253,-0.417c-0.058,-0.229 -0.169,-0.416 -0.248,-0.416c-0.079,0 -0.237,-0.225 -0.351,-0.5c-0.114,-0.275 -0.273,-0.5 -0.353,-0.5c-0.081,0 -0.147,-0.113 -0.147,-0.25c0,-0.156 -0.157,-0.25 -0.416,-0.25c-0.229,0 -0.417,-0.079 -0.417,-0.176c0,-0.096 -0.225,-0.253 -0.5,-0.349c-0.275,-0.096 -0.5,-0.238 -0.5,-0.315c0,-0.077 -0.338,-0.191 -0.75,-0.252c-0.413,-0.062 -0.75,-0.179 -0.75,-0.261c0,-0.204 -1.789,-0.186 -1.917,0.019m21.084,0c0,0.092 -0.257,0.167 -0.572,0.167c-0.314,0 -0.67,0.097 -0.791,0.215c-0.122,0.119 -0.464,0.315 -0.762,0.437c-0.298,0.122 -0.542,0.288 -0.542,0.368c0,0.081 -0.107,0.147 -0.238,0.147c-0.131,0 -0.392,0.206 -0.581,0.458c-0.189,0.252 -0.42,0.549 -0.513,0.66c-0.093,0.112 -0.261,0.412 -0.374,0.667c-0.112,0.256 -0.257,0.504 -0.323,0.552c-0.895,0.658 -0.207,5.492 0.897,6.297c0.164,0.12 0.299,0.326 0.299,0.458c0,0.133 0.108,0.241 0.24,0.241c0.133,0 0.34,0.131 0.461,0.292c0.299,0.398 0.808,0.663 1.528,0.798c0.332,0.063 0.604,0.18 0.604,0.262c0,0.086 47.42,0.148 113.5,0.148c62.425,0 113.5,-0.059 113.5,-0.13c0,-0.072 0.344,-0.232 0.764,-0.356c0.42,-0.124 0.803,-0.328 0.851,-0.453c0.048,-0.125 0.178,-0.228 0.289,-0.228c0.171,0 0.573,-0.408 1.431,-1.451c0.091,-0.111 0.165,-0.322 0.165,-0.47c0,-0.148 0.113,-0.382 0.25,-0.519c0.138,-0.138 0.25,-0.507 0.25,-0.822c0,-0.314 0.075,-0.571 0.167,-0.571c0.095,0 0.166,-0.5 0.166,-1.167c0,-0.641 -0.066,-1.166 -0.147,-1.166c-0.082,0 -0.199,-0.338 -0.261,-0.75c-0.061,-0.413 -0.182,-0.75 -0.269,-0.75c-0.086,0 -0.156,-0.113 -0.156,-0.25c0,-0.138 -0.075,-0.25 -0.167,-0.25c-0.091,0 -0.166,-0.097 -0.166,-0.216c0,-0.71 -2.528,-2.451 -3.559,-2.451c-0.243,0 -0.441,-0.075 -0.441,-0.167c0,-0.111 -37.695,-0.166 -112.75,-0.166c-75.056,0 -112.75,0.055 -112.75,0.166m-66.667,27c0,0.092 -0.176,0.167 -0.392,0.167c-0.559,0 -1.464,0.342 -1.845,0.697c-0.179,0.166 -0.375,0.303 -0.435,0.303c-0.208,0 -0.926,0.751 -1.155,1.208c-0.126,0.252 -0.291,0.459 -0.365,0.459c-0.075,0 -0.222,0.337 -0.325,0.75c-0.104,0.412 -0.255,0.75 -0.336,0.75c-0.081,0 -0.147,0.787 -0.147,1.75c0,0.962 0.063,1.75 0.14,1.75c0.077,0 0.232,0.304 0.343,0.675c0.111,0.372 0.33,0.831 0.485,1.02c0.693,0.844 1.336,1.471 1.51,1.471c0.104,0 0.189,0.075 0.189,0.167c0,0.092 0.15,0.167 0.333,0.167c0.183,0 0.333,0.071 0.333,0.158c0,0.278 1.204,0.506 2.667,0.506c1.463,0 2.667,-0.228 2.667,-0.506c0,-0.087 0.156,-0.158 0.348,-0.158c0.536,0 2.403,-2.035 2.6,-2.834c0.057,-0.229 0.18,-0.467 0.275,-0.529c0.231,-0.151 0.249,-3.611 0.02,-3.768c-0.096,-0.066 -0.275,-0.434 -0.399,-0.819c-0.124,-0.385 -0.327,-0.739 -0.451,-0.786c-0.125,-0.048 -0.227,-0.184 -0.227,-0.301c0,-0.255 -0.892,-1.13 -1.151,-1.13c-0.1,0 -0.182,-0.075 -0.182,-0.167c0,-0.091 -0.113,-0.166 -0.25,-0.166c-0.138,0 -0.25,-0.063 -0.25,-0.141c0,-0.164 -1.13,-0.526 -1.644,-0.526c-0.196,0 -0.356,-0.075 -0.356,-0.167c0,-0.092 -0.444,-0.166 -1,-0.166c-0.556,0 -1,0.074 -1,0.166m21.167,0c0,0.092 -0.222,0.167 -0.492,0.167c-0.534,0 -1.294,0.288 -1.645,0.623c-0.121,0.116 -0.283,0.21 -0.359,0.21c-0.23,0 -1.338,1.046 -1.338,1.263c0,0.111 -0.098,0.239 -0.217,0.285c-0.12,0.046 -0.323,0.41 -0.451,0.81c-0.129,0.399 -0.305,0.775 -0.392,0.835c-0.21,0.145 -0.203,3.476 0.008,3.615c0.091,0.06 0.281,0.45 0.421,0.866c0.312,0.93 1.895,2.66 2.433,2.66c0.201,0 0.365,0.071 0.365,0.158c0,0.491 2.543,0.506 84.301,0.507c82.656,0.001 84.532,-0.01 84.532,-0.518c0,-0.081 0.154,-0.147 0.342,-0.147c0.339,0 0.579,-0.215 1.618,-1.442c0.762,-0.901 0.767,-0.909 0.994,-1.558c0.595,-1.704 0.391,-4.363 -0.427,-5.575c-0.5,-0.741 -1.468,-1.759 -1.673,-1.759c-0.075,0 -0.305,-0.146 -0.511,-0.325c-0.207,-0.179 -0.706,-0.375 -1.109,-0.436c-0.404,-0.06 -0.734,-0.176 -0.734,-0.258c0,-0.085 -34.795,-0.147 -82.833,-0.147c-55.111,0 -82.833,0.055 -82.833,0.166m24,26.946c-0.229,0.048 -0.455,0.14 -0.5,0.204c-0.046,0.064 -0.391,0.206 -0.767,0.316c-0.375,0.11 -0.885,0.387 -1.133,0.617c-0.248,0.229 -0.505,0.417 -0.571,0.417c-0.066,0 -0.268,0.282 -0.448,0.625c-0.18,0.344 -0.416,0.682 -0.523,0.75c-0.108,0.069 -0.246,0.425 -0.308,0.792c-0.062,0.367 -0.181,0.667 -0.265,0.667c-0.084,0 -0.152,0.75 -0.152,1.666c0,0.917 0.061,1.667 0.135,1.667c0.074,0 0.231,0.375 0.349,0.833c0.129,0.504 0.306,0.834 0.448,0.834c0.129,0 0.235,0.093 0.236,0.208c0.003,0.249 1.044,1.292 1.29,1.292c0.095,0 0.216,0.112 0.269,0.25c0.053,0.137 0.211,0.25 0.351,0.25c0.14,0 0.255,0.075 0.255,0.166c0,0.092 0.225,0.167 0.5,0.167c0.275,0 0.5,0.075 0.5,0.167c0,0.1 0.667,0.166 1.667,0.166c1,0 1.667,-0.066 1.667,-0.166c0,-0.092 0.228,-0.167 0.507,-0.167c0.279,0 0.597,-0.076 0.708,-0.17c0.87,-0.735 1.219,-0.996 1.326,-0.996c0.069,-0.001 0.125,-0.069 0.125,-0.153c0,-0.084 0.263,-0.423 0.584,-0.753c0.32,-0.33 0.583,-0.712 0.583,-0.848c0,-0.136 0.075,-0.247 0.167,-0.247c0.091,0 0.166,-0.375 0.166,-0.833c0,-0.458 0.075,-0.833 0.167,-0.833c0.092,0 0.167,-0.413 0.167,-0.917c0,-0.504 -0.075,-0.917 -0.167,-0.917c-0.092,0 -0.167,-0.337 -0.167,-0.75c0,-0.412 -0.075,-0.75 -0.166,-0.75c-0.092,0 -0.167,-0.097 -0.167,-0.216c0,-0.219 -0.346,-0.735 -0.875,-1.303c-0.16,-0.173 -0.292,-0.384 -0.292,-0.469c0,-0.086 -0.168,-0.209 -0.374,-0.275c-0.206,-0.065 -0.45,-0.209 -0.542,-0.319c-0.092,-0.11 -0.43,-0.301 -0.75,-0.424c-0.321,-0.124 -0.627,-0.288 -0.681,-0.365c-0.115,-0.167 -2.72,-0.311 -3.319,-0.183m20.791,0.007c-0.252,0.038 -0.458,0.129 -0.458,0.202c0,0.074 -0.32,0.256 -0.712,0.405c-0.973,0.372 -2.072,1.431 -2.502,2.412c-0.108,0.245 -0.25,0.484 -0.315,0.532c-0.455,0.334 -0.459,4.491 -0.005,4.822c0.068,0.05 0.215,0.297 0.325,0.549c0.111,0.252 0.278,0.459 0.372,0.459c0.094,0 0.17,0.098 0.17,0.218c0,0.24 0.957,1.282 1.178,1.282c0.076,0 0.341,0.187 0.588,0.416c0.261,0.242 0.649,0.417 0.925,0.417c0.262,0 0.476,0.075 0.476,0.167c0,0.111 33.528,0.166 100.25,0.166c66.722,0 100.25,-0.055 100.25,-0.166c0,-0.092 0.262,-0.167 0.583,-0.167c0.321,0 0.584,-0.07 0.584,-0.155c0,-0.086 0.148,-0.203 0.329,-0.261c0.43,-0.136 1.854,-1.57 2.172,-2.187c0.137,-0.264 0.292,-0.518 0.346,-0.564c0.593,-0.502 0.61,-4.77 0.021,-5.149c-0.086,-0.055 -0.206,-0.26 -0.267,-0.454c-0.192,-0.616 -1.808,-2.164 -2.518,-2.412c-0.367,-0.128 -0.72,-0.308 -0.786,-0.4c-0.115,-0.163 -199.945,-0.294 -201.006,-0.132m-55.416,27.157c-0.678,0.16 -1.042,0.33 -1.042,0.485c0,0.131 -0.101,0.239 -0.225,0.239c-0.216,0 -1.275,0.907 -1.275,1.092c0,0.049 -0.181,0.284 -0.402,0.522c-0.221,0.238 -0.489,0.779 -0.596,1.201c-0.106,0.422 -0.263,0.898 -0.348,1.057c-0.197,0.37 -0.202,2.294 -0.006,2.294c0.081,0 0.198,0.337 0.26,0.748c0.061,0.412 0.22,0.856 0.352,0.988c0.132,0.132 0.24,0.318 0.24,0.412c0,0.315 1.829,2.019 2.167,2.019c0.183,0 0.333,0.065 0.333,0.145c0,0.577 4.059,0.687 5.151,0.14c0.312,-0.157 0.668,-0.285 0.791,-0.285c0.124,0 0.225,-0.07 0.225,-0.155c0,-0.086 0.15,-0.203 0.333,-0.262c0.183,-0.058 0.333,-0.17 0.333,-0.249c0,-0.079 0.263,-0.422 0.584,-0.762c0.32,-0.34 0.583,-0.721 0.583,-0.845c0,-0.125 0.075,-0.227 0.167,-0.227c0.091,0 0.166,-0.3 0.166,-0.667c0,-0.366 0.075,-0.666 0.167,-0.666c0.099,0 0.167,-0.608 0.167,-1.49c0,-0.82 -0.075,-1.537 -0.167,-1.594c-0.092,-0.056 -0.167,-0.323 -0.167,-0.593c0,-0.269 -0.075,-0.49 -0.166,-0.49c-0.092,0 -0.167,-0.112 -0.167,-0.248c0,-0.286 -1.854,-2.252 -2.124,-2.252c-0.1,0 -0.209,-0.081 -0.242,-0.18c-0.188,-0.566 -3.318,-0.798 -5.092,-0.377m21.625,-0.163c-0.599,0.099 -1.334,0.405 -1.334,0.555c0,0.071 -0.174,0.173 -0.387,0.226c-0.435,0.109 -1.335,0.91 -1.497,1.331c-0.058,0.151 -0.183,0.275 -0.277,0.275c-0.095,0 -0.172,0.187 -0.172,0.416c0,0.23 -0.069,0.417 -0.153,0.417c-0.221,0 -0.514,1.52 -0.514,2.667c0,1.146 0.293,2.666 0.514,2.666c0.084,0 0.153,0.15 0.153,0.334c0,0.183 0.075,0.333 0.167,0.333c0.091,0 0.166,0.112 0.166,0.25c0,0.137 0.071,0.25 0.157,0.25c0.086,0 0.499,0.337 0.918,0.75c0.492,0.485 0.907,0.75 1.176,0.75c0.229,0 0.416,0.071 0.416,0.159c0,0.481 2.02,0.506 41.333,0.506c39.314,0 41.334,-0.025 41.334,-0.506c0,-0.088 0.187,-0.159 0.416,-0.159c0.23,0 0.417,-0.075 0.417,-0.167c0,-0.091 0.085,-0.166 0.189,-0.166c0.103,0 0.436,-0.263 0.738,-0.584c0.303,-0.321 0.62,-0.583 0.706,-0.583c0.085,0 0.29,-0.356 0.454,-0.792c0.165,-0.435 0.381,-0.845 0.481,-0.91c0.25,-0.163 0.248,-4.101 -0.002,-4.262c-0.101,-0.066 -0.278,-0.406 -0.392,-0.756c-0.114,-0.35 -0.313,-0.677 -0.441,-0.726c-0.128,-0.049 -0.233,-0.175 -0.232,-0.28c0.001,-0.243 -1.178,-1.274 -1.458,-1.274c-0.115,0 -0.21,-0.059 -0.21,-0.13c0,-0.628 0.551,-0.619 -41.666,-0.64c-22.321,-0.011 -40.771,0.012 -41,0.05m101.223,0.123c-0.472,0.115 -0.984,0.334 -1.136,0.486c-0.153,0.153 -0.337,0.278 -0.409,0.278c-0.408,0 -1.926,1.851 -2.106,2.566c-0.06,0.239 -0.175,0.434 -0.257,0.434c-0.082,0 -0.149,0.9 -0.149,2c0,1.196 0.066,2 0.164,2c0.09,0 0.21,0.187 0.268,0.416c0.057,0.23 0.171,0.417 0.253,0.417c0.082,0 0.149,0.098 0.149,0.219c0,0.12 0.15,0.379 0.333,0.576c0.183,0.197 0.333,0.402 0.333,0.456c0,0.085 0.436,0.506 1.118,1.08c0.111,0.093 0.317,0.169 0.459,0.169c0.141,0 0.257,0.059 0.257,0.132c0,0.529 0.966,0.535 84.46,0.534c81.665,-0.001 84.206,-0.016 84.206,-0.507c0,-0.088 0.156,-0.159 0.346,-0.159c0.313,0 0.821,-0.348 0.821,-0.564c0,-0.114 0.822,-0.936 0.936,-0.936c0.189,0 0.564,-0.49 0.564,-0.738c0,-0.144 0.063,-0.262 0.14,-0.262c0.2,0 0.527,-1.177 0.527,-1.894c0,-0.333 0.075,-0.606 0.166,-0.606c0.092,0 0.167,-0.15 0.167,-0.333c0,-0.184 -0.075,-0.334 -0.167,-0.334c-0.091,0 -0.167,-0.281 -0.167,-0.625c-0.001,-0.783 -0.297,-1.875 -0.507,-1.875c-0.088,0 -0.159,-0.15 -0.159,-0.333c0,-0.183 -0.075,-0.333 -0.167,-0.333c-0.091,0 -0.168,-0.094 -0.17,-0.209c-0.002,-0.114 -0.275,-0.433 -0.606,-0.708c-0.332,-0.275 -0.732,-0.62 -0.888,-0.767c-0.829,-0.774 3.952,-0.731 -84.669,-0.761c-66.248,-0.022 -83.426,0.015 -84.11,0.181m11.943,26.709c-0.229,0.048 -0.454,0.137 -0.5,0.197c-0.046,0.06 -0.383,0.214 -0.75,0.342c-0.659,0.23 -2.416,1.804 -2.416,2.164c0,0.102 -0.059,0.185 -0.13,0.185c-0.872,0 -0.885,5.381 -0.015,6.215c0.171,0.164 0.311,0.358 0.311,0.432c0,0.074 0.188,0.352 0.417,0.619c0.229,0.266 0.416,0.54 0.416,0.609c0.001,0.069 0.151,0.125 0.334,0.125c0.183,0 0.333,0.075 0.333,0.167c0,0.091 0.109,0.166 0.242,0.166c0.133,0 0.302,0.101 0.375,0.224c0.424,0.711 5.383,0.822 5.383,0.12c0,-0.078 0.188,-0.188 0.417,-0.245c0.229,-0.058 0.417,-0.179 0.417,-0.269c0,-0.089 0.112,-0.163 0.25,-0.163c0.137,0 0.25,-0.066 0.25,-0.147c0,-0.081 0.15,-0.187 0.333,-0.235c0.183,-0.048 0.333,-0.206 0.333,-0.352c0,-0.146 0.075,-0.266 0.167,-0.266c0.092,0 0.167,-0.113 0.167,-0.25c0,-0.138 0.069,-0.25 0.153,-0.25c0.085,0 0.239,-0.258 0.343,-0.573c0.104,-0.314 0.279,-0.602 0.388,-0.639c0.276,-0.092 0.28,-4.084 0.004,-4.254c-0.107,-0.066 -0.248,-0.332 -0.313,-0.591c-0.065,-0.258 -0.221,-0.509 -0.347,-0.558c-0.125,-0.048 -0.228,-0.191 -0.228,-0.317c0,-0.375 -1.484,-1.704 -2.142,-1.918c-0.335,-0.109 -0.653,-0.267 -0.707,-0.35c-0.113,-0.173 -2.856,-0.322 -3.485,-0.188m20.959,0.007c-0.252,0.038 -0.459,0.14 -0.459,0.225c0,0.086 -0.11,0.156 -0.244,0.156c-0.57,0 -2.256,1.07 -2.256,1.431c0,0.046 -0.076,0.174 -0.169,0.284c-0.686,0.813 -0.818,1.047 -0.916,1.629c-0.061,0.361 -0.179,0.656 -0.263,0.656c-0.083,0 -0.152,0.712 -0.152,1.583c0,0.871 0.067,1.584 0.148,1.584c0.082,0 0.195,0.248 0.252,0.551c0.107,0.57 0.302,0.874 1.225,1.907c0.298,0.334 0.542,0.667 0.542,0.741c0,0.074 0.153,0.134 0.34,0.134c0.315,0 0.471,0.09 1.055,0.61c0.616,0.547 1.358,0.555 52.722,0.556c50.155,0.001 52.883,-0.025 52.883,-0.495c0,-0.074 0.188,-0.182 0.417,-0.239c0.229,-0.058 0.416,-0.179 0.416,-0.269c0,-0.089 0.115,-0.163 0.255,-0.163c0.41,0 1.729,-1.525 1.946,-2.25c0.11,-0.367 0.278,-0.72 0.375,-0.786c0.241,-0.164 0.232,-3.772 -0.01,-3.929c-0.101,-0.065 -0.281,-0.416 -0.4,-0.779c-0.274,-0.841 -1.72,-2.313 -2.53,-2.576c-0.338,-0.109 -0.644,-0.288 -0.68,-0.398c-0.064,-0.191 -103.26,-0.353 -104.497,-0.163m-82.709,26.982c-0.635,0.161 -1.25,0.44 -1.25,0.568c0,0.07 -0.176,0.173 -0.392,0.227c-0.459,0.115 -1.608,1.121 -1.608,1.408c0,0.108 -0.068,0.196 -0.151,0.196c-0.334,0 -0.849,1.447 -0.849,2.386c0,0.521 -0.075,0.947 -0.166,0.947c-0.092,0 -0.167,0.113 -0.167,0.25c0,0.138 0.075,0.25 0.167,0.25c0.091,0 0.166,0.399 0.166,0.886c0,0.891 0.51,2.281 0.838,2.281c0.089,0 0.162,0.082 0.162,0.183c0,0.194 1.058,1.317 1.241,1.317c0.058,0 0.268,0.15 0.464,0.333c0.197,0.184 0.488,0.334 0.646,0.334c0.159,0 0.319,0.093 0.358,0.208c0.233,0.702 5.458,-0.016 5.458,-0.75c0,-0.069 0.115,-0.125 0.255,-0.125c0.141,0 0.299,-0.113 0.351,-0.25c0.053,-0.138 0.16,-0.25 0.238,-0.25c0.328,0 0.998,-0.898 1.275,-1.709c0.164,-0.481 0.369,-0.925 0.455,-0.988c0.21,-0.151 0.204,-3.461 -0.007,-3.606c-0.09,-0.063 -0.27,-0.44 -0.398,-0.84c-0.129,-0.399 -0.332,-0.763 -0.452,-0.809c-0.119,-0.046 -0.217,-0.162 -0.217,-0.257c0,-0.218 -1.092,-1.291 -1.313,-1.291c-0.09,0 -0.262,-0.095 -0.383,-0.21c-0.591,-0.564 -3.525,-0.992 -4.721,-0.689m21,0.011c-0.507,0.112 -1.307,0.438 -1.548,0.632c-0.118,0.095 -0.484,0.416 -0.815,0.714c-0.33,0.298 -0.664,0.542 -0.743,0.542c-0.079,0 -0.144,0.15 -0.144,0.333c0,0.184 -0.072,0.334 -0.16,0.334c-0.088,0 -0.253,0.318 -0.367,0.708c-0.113,0.39 -0.281,0.759 -0.372,0.822c-0.092,0.062 -0.166,0.87 -0.166,1.803c0,0.933 0.074,1.741 0.166,1.803c0.091,0.063 0.259,0.432 0.372,0.822c0.114,0.39 0.279,0.708 0.367,0.708c0.088,0 0.16,0.1 0.16,0.221c0,0.231 0.679,0.946 0.898,0.946c0.069,0 0.231,0.094 0.358,0.208c0.557,0.499 0.757,0.63 1.52,0.992l0.808,0.383l51.902,0c41.375,0 51.917,-0.042 51.973,-0.208c0.038,-0.115 0.176,-0.208 0.307,-0.208c0.313,0 0.9,-0.334 1.318,-0.75c0.185,-0.184 0.527,-0.432 0.761,-0.553c0.234,-0.121 0.563,-0.477 0.733,-0.792c0.169,-0.314 0.362,-0.572 0.429,-0.572c0.16,0 0.493,-1.346 0.493,-1.99c0,-0.281 0.075,-0.51 0.167,-0.51c0.092,0 0.167,-0.225 0.167,-0.5c0,-0.275 -0.075,-0.5 -0.167,-0.5c-0.092,0 -0.167,-0.244 -0.168,-0.542c-0.001,-0.684 -0.303,-1.791 -0.488,-1.791c-0.078,0 -0.189,-0.19 -0.247,-0.421c-0.095,-0.379 -0.786,-1.15 -1.755,-1.958c-0.99,-0.825 1.522,-0.789 -53.835,-0.769c-28.375,0.011 -51.74,0.053 -51.924,0.093" id="path0"/>
   <path fill-rule="evenodd" fill="#FFFFFF" d="m222.792,66.612c-0.894,0.037 -1.625,0.128 -1.625,0.204c0,0.075 -0.919,0.19 -2.042,0.255c-1.123,0.065 -2.067,0.188 -2.097,0.274c-0.031,0.085 -0.725,0.155 -1.542,0.155c-0.817,0 -1.486,0.067 -1.486,0.15c0,0.082 -0.544,0.204 -1.208,0.27c-0.665,0.066 -1.246,0.17 -1.292,0.232c-0.075,0.101 -2.622,0.585 -4.208,0.799c-0.344,0.046 -0.625,0.151 -0.625,0.233c0,0.082 -0.244,0.15 -0.542,0.15c-0.298,0.001 -0.756,0.113 -1.019,0.25c-0.263,0.137 -0.641,0.249 -0.84,0.249c-0.2,0 -1.035,0.217 -1.856,0.481c-1.602,0.516 -2.584,0.769 -2.785,0.718c-0.069,-0.018 -0.125,0.043 -0.125,0.135c0,0.091 -0.221,0.166 -0.49,0.166c-0.27,0 -0.537,0.075 -0.593,0.167c-0.057,0.092 -0.249,0.167 -0.427,0.167c-0.178,0 -0.323,0.072 -0.323,0.161c0,0.089 -0.113,0.118 -0.25,0.066c-0.138,-0.053 -0.25,-0.027 -0.25,0.057c0,0.084 -0.375,0.249 -0.833,0.366c-0.458,0.118 -0.875,0.282 -0.927,0.365c-0.051,0.083 -0.319,0.151 -0.595,0.151c-0.277,0 -0.615,0.113 -0.752,0.25c-0.138,0.138 -0.395,0.25 -0.572,0.25c-0.177,0 -0.321,0.066 -0.321,0.147c0,0.081 -0.338,0.232 -0.75,0.336c-0.413,0.104 -0.75,0.246 -0.75,0.317c0,0.07 -0.342,0.228 -0.76,0.352c-0.417,0.123 -0.862,0.327 -0.988,0.453c-0.126,0.126 -0.343,0.229 -0.483,0.229c-0.326,0 -1.103,0.352 -1.103,0.5c0,0.062 -0.318,0.213 -0.708,0.336c-0.39,0.123 -0.827,0.322 -0.971,0.443c-0.145,0.121 -0.351,0.221 -0.459,0.221c-0.107,0 -0.195,0.075 -0.195,0.166c0,0.092 -0.15,0.167 -0.333,0.167c-0.184,0 -0.334,0.06 -0.334,0.133c0,0.073 -0.281,0.235 -0.625,0.359c-0.343,0.124 -0.904,0.401 -1.246,0.616c-0.342,0.216 -0.736,0.392 -0.875,0.392c-0.14,0 -0.254,0.07 -0.254,0.156c0,0.086 -0.262,0.251 -0.583,0.367c-0.321,0.116 -0.583,0.275 -0.583,0.354c0,0.078 -0.075,0.096 -0.167,0.04c-0.092,-0.057 -0.167,-0.033 -0.167,0.053c0,0.086 -0.225,0.249 -0.5,0.363c-0.275,0.114 -0.5,0.265 -0.5,0.336c0,0.07 -0.187,0.175 -0.416,0.233c-0.229,0.057 -0.417,0.178 -0.417,0.268c0,0.09 -0.085,0.163 -0.188,0.163c-0.104,0 -0.554,0.263 -1.001,0.584c-0.446,0.321 -0.887,0.583 -0.978,0.583c-0.092,0 -0.166,0.075 -0.166,0.167c0,0.091 -0.094,0.167 -0.209,0.168c-0.114,0.001 -0.518,0.245 -0.898,0.542c-0.999,0.782 -1.344,1.009 -1.472,0.97c-0.063,-0.02 -0.277,0.141 -0.476,0.357c-0.199,0.216 -0.568,0.496 -0.82,0.623c-0.252,0.126 -0.459,0.292 -0.459,0.368c0,0.076 -0.106,0.138 -0.236,0.138c-0.13,0 -0.261,0.061 -0.291,0.135c-0.031,0.075 -0.581,0.526 -1.223,1.002c-0.641,0.477 -1.319,1.016 -1.506,1.199c-0.186,0.182 -0.395,0.331 -0.463,0.331c-0.069,0 -0.388,0.263 -0.708,0.583c-0.321,0.321 -0.652,0.584 -0.735,0.584c-0.084,0 -0.25,0.133 -0.37,0.296c-0.12,0.163 -0.591,0.594 -1.047,0.958c-1.513,1.209 -9.587,9.44 -9.587,9.774c0,0.076 -0.075,0.138 -0.167,0.138c-0.092,0 -0.167,0.072 -0.167,0.161c0,0.088 -0.337,0.507 -0.75,0.932c-0.412,0.424 -0.75,0.839 -0.75,0.923c0,0.083 -0.07,0.151 -0.155,0.151c-0.086,0 -0.203,0.149 -0.261,0.331c-0.057,0.182 -0.325,0.551 -0.594,0.821c-0.269,0.269 -0.49,0.532 -0.49,0.585c0,0.101 -0.179,0.321 -1.003,1.227c-0.273,0.301 -0.497,0.662 -0.497,0.802c0,0.139 -0.075,0.207 -0.166,0.151c-0.092,-0.057 -0.167,0.01 -0.167,0.148c0,0.138 -0.187,0.453 -0.417,0.701c-0.229,0.247 -0.416,0.495 -0.417,0.55c0,0.055 -0.189,0.321 -0.421,0.59c-0.232,0.27 -0.465,0.664 -0.518,0.875c-0.053,0.212 -0.16,0.386 -0.237,0.386c-0.078,0 -0.266,0.262 -0.418,0.583c-0.152,0.321 -0.334,0.583 -0.404,0.583c-0.07,0 -0.219,0.22 -0.33,0.488c-0.111,0.269 -0.341,0.614 -0.51,0.768c-0.17,0.153 -0.357,0.496 -0.415,0.762c-0.058,0.265 -0.174,0.482 -0.257,0.482c-0.083,0 -0.261,0.263 -0.395,0.584c-0.134,0.32 -0.311,0.583 -0.392,0.583c-0.082,0 -0.248,0.3 -0.369,0.667c-0.121,0.366 -0.276,0.666 -0.345,0.666c-0.068,0 -0.43,0.619 -0.804,1.375c-0.375,0.757 -0.685,1.3 -0.691,1.209c-0.005,-0.092 -0.125,0.164 -0.267,0.569c-0.141,0.404 -0.363,0.841 -0.492,0.97c-0.129,0.129 -0.234,0.327 -0.234,0.439c0,0.298 -0.395,1.102 -0.542,1.104c-0.069,0 -0.125,0.115 -0.125,0.253c0,0.25 -0.322,0.921 -0.519,1.081c-0.057,0.046 -0.156,0.271 -0.222,0.5c-0.066,0.23 -0.294,0.792 -0.506,1.25c-0.331,0.712 -1.022,2.377 -1.628,3.917c-0.09,0.229 -0.23,0.547 -0.311,0.706c-0.081,0.159 -0.147,0.403 -0.147,0.542c0,0.138 -0.061,0.252 -0.135,0.252c-0.074,0 -0.271,0.527 -0.438,1.17c-0.167,0.644 -0.36,1.205 -0.43,1.248c-0.069,0.043 -0.179,0.36 -0.244,0.705c-0.064,0.345 -0.253,0.927 -0.419,1.294c-0.167,0.366 -0.395,1.135 -0.507,1.708c-0.112,0.573 -0.261,1.042 -0.332,1.042c-0.07,0 -0.168,0.281 -0.218,0.625c-0.16,1.092 -0.312,1.708 -0.421,1.708c-0.059,0 -0.13,0.392 -0.159,0.872c-0.029,0.479 -0.115,0.911 -0.191,0.958c-0.077,0.048 -0.193,0.518 -0.259,1.045c-0.065,0.527 -0.172,0.958 -0.237,0.958c-0.065,0 -0.22,0.713 -0.344,1.584c-0.123,0.87 -0.287,1.583 -0.362,1.583c-0.076,0 -0.138,0.563 -0.138,1.25c0,0.688 -0.067,1.25 -0.149,1.25c-0.082,0 -0.202,0.675 -0.267,1.5c-0.066,0.825 -0.171,1.5 -0.234,1.5c-0.063,0 -0.133,0.281 -0.156,0.625c-0.022,0.344 -0.111,1.487 -0.198,2.542c-0.086,1.054 -0.158,2.573 -0.16,3.375c-0.001,0.802 -0.07,1.458 -0.153,1.458c-0.084,0 -0.154,1.153 -0.156,2.583c-0.003,1.497 0.06,2.584 0.151,2.584c0.085,0 0.156,0.163 0.156,0.363c0,0.472 0.362,1.47 0.533,1.47c0.073,0 0.133,0.094 0.133,0.21c0,0.115 0.153,0.305 0.34,0.422c0.187,0.117 0.302,0.274 0.255,0.35c-0.047,0.076 0.231,0.278 0.618,0.448c0.387,0.171 0.741,0.357 0.787,0.413c0.389,0.478 2.699,0.49 94.066,0.49c90.891,0 94.101,-0.017 94.101,-0.495c0,-0.075 0.206,-0.186 0.458,-0.249c0.506,-0.126 1.709,-1.313 1.709,-1.686c0,-0.13 0.058,-0.236 0.13,-0.236c0.632,0 0.651,-12.905 0.019,-13.139c-0.082,-0.031 -0.153,-0.368 -0.157,-0.75c-0.007,-0.678 -0.422,-4.197 -0.573,-4.861c-0.301,-1.321 -0.57,-2.933 -0.577,-3.459c-0.005,-0.343 -0.074,-0.625 -0.154,-0.625c-0.137,0 -0.245,-0.484 -0.467,-2.083c-0.051,-0.367 -0.162,-0.799 -0.248,-0.962c-0.085,-0.162 -0.11,-0.368 -0.055,-0.458c0.056,-0.09 0.031,-0.163 -0.054,-0.163c-0.155,0 -0.312,-0.545 -0.48,-1.667c-0.049,-0.321 -0.142,-0.621 -0.208,-0.667c-0.066,-0.046 -0.219,-0.571 -0.34,-1.166c-0.121,-0.596 -0.293,-1.177 -0.382,-1.292c-0.089,-0.115 -0.106,-0.208 -0.038,-0.208c0.069,0 0.054,-0.094 -0.033,-0.209c-0.086,-0.114 -0.255,-0.546 -0.375,-0.958c-0.12,-0.413 -0.321,-0.986 -0.447,-1.275c-0.125,-0.289 -0.228,-0.64 -0.228,-0.781c0,-0.141 -0.087,-0.467 -0.194,-0.725c-0.106,-0.258 -0.181,-0.525 -0.166,-0.594c0.015,-0.069 -0.048,-0.125 -0.14,-0.125c-0.092,0 -0.167,-0.146 -0.167,-0.323c0,-0.178 -0.075,-0.37 -0.166,-0.427c-0.092,-0.057 -0.167,-0.286 -0.167,-0.51c0,-0.224 -0.061,-0.407 -0.135,-0.407c-0.074,0 -0.234,-0.393 -0.354,-0.875c-0.121,-0.481 -0.31,-0.987 -0.42,-1.125c-0.11,-0.137 -0.291,-0.568 -0.402,-0.958c-0.111,-0.39 -0.262,-0.708 -0.336,-0.708c-0.073,0 -0.235,-0.319 -0.36,-0.709c-0.126,-0.389 -0.4,-1.038 -0.61,-1.441c-0.211,-0.403 -0.383,-0.835 -0.383,-0.958c0,-0.124 -0.075,-0.226 -0.167,-0.226c-0.091,0 -0.166,-0.079 -0.166,-0.177c0,-0.186 -1.172,-2.679 -1.327,-2.823c-0.197,-0.182 -0.507,-0.843 -0.507,-1.081c0,-0.138 -0.079,-0.252 -0.176,-0.252c-0.097,0 -0.13,-0.075 -0.074,-0.167c0.057,-0.091 0.042,-0.166 -0.032,-0.166c-0.075,0 -0.242,-0.244 -0.372,-0.542c-0.13,-0.298 -0.284,-0.579 -0.342,-0.625c-0.1,-0.078 -0.998,-1.603 -1.754,-2.977c-0.183,-0.334 -0.464,-0.752 -0.625,-0.929c-0.16,-0.178 -0.291,-0.418 -0.291,-0.534c0,-0.115 -0.106,-0.27 -0.234,-0.343c-0.129,-0.074 -0.26,-0.284 -0.292,-0.467c-0.032,-0.183 -0.211,-0.483 -0.398,-0.667c-0.187,-0.183 -0.443,-0.539 -0.57,-0.791c-0.126,-0.252 -0.292,-0.459 -0.368,-0.459c-0.076,0 -0.138,-0.102 -0.138,-0.227c0,-0.125 -0.174,-0.406 -0.386,-0.625c-0.212,-0.219 -0.566,-0.698 -0.785,-1.064c-0.22,-0.367 -0.478,-0.755 -0.573,-0.862c-0.095,-0.107 -0.323,-0.39 -0.506,-0.629c-0.184,-0.239 -0.427,-0.54 -0.542,-0.668c-0.115,-0.129 -0.208,-0.31 -0.208,-0.403c0,-0.093 -0.138,-0.267 -0.305,-0.387c-0.168,-0.12 -0.447,-0.443 -0.621,-0.718c-0.174,-0.275 -0.431,-0.612 -0.571,-0.75c-0.141,-0.138 -0.361,-0.456 -0.491,-0.708c-0.129,-0.252 -0.266,-0.427 -0.304,-0.389c-0.098,0.098 -0.708,-0.535 -0.708,-0.735c0,-0.091 -0.15,-0.259 -0.334,-0.373c-0.183,-0.115 -0.333,-0.29 -0.333,-0.39c0,-0.1 -0.187,-0.282 -0.417,-0.405c-0.229,-0.123 -0.416,-0.344 -0.416,-0.491c0,-0.148 -0.15,-0.377 -0.334,-0.509c-0.183,-0.132 -0.333,-0.336 -0.333,-0.453c0,-0.118 -0.065,-0.195 -0.144,-0.172c-0.16,0.046 -1.356,-1.195 -1.356,-1.408c0,-0.073 -0.084,-0.134 -0.186,-0.134c-0.205,0 -1.314,-1.152 -1.314,-1.366c0,-0.073 -0.113,-0.134 -0.25,-0.134c-0.138,0 -0.25,-0.059 -0.25,-0.132c0,-0.132 -1.111,-1.368 -1.23,-1.368c-0.035,0 -0.364,-0.3 -0.731,-0.666c-0.366,-0.367 -0.619,-0.667 -0.561,-0.668c0.058,0 -0.136,-0.147 -0.431,-0.327c-0.295,-0.18 -0.83,-0.63 -1.189,-1c-0.359,-0.369 -0.72,-0.672 -0.804,-0.672c-0.083,0 -0.427,-0.3 -0.764,-0.667c-0.337,-0.366 -0.686,-0.666 -0.775,-0.666c-0.09,0 -0.261,-0.138 -0.381,-0.307c-0.119,-0.169 -0.405,-0.404 -0.634,-0.523c-0.42,-0.218 -0.701,-0.444 -1.403,-1.129c-0.212,-0.206 -0.445,-0.375 -0.519,-0.375c-0.073,0 -0.252,-0.112 -0.397,-0.249c-0.487,-0.46 -1.849,-1.417 -2.016,-1.417c-0.091,0 -0.165,-0.069 -0.165,-0.153c0,-0.085 -0.281,-0.326 -0.625,-0.536c-0.344,-0.21 -0.724,-0.479 -0.845,-0.597c-0.121,-0.118 -0.32,-0.214 -0.441,-0.214c-0.121,0 -0.263,-0.113 -0.316,-0.25c-0.053,-0.138 -0.211,-0.25 -0.351,-0.25c-0.14,0 -0.255,-0.075 -0.255,-0.167c0,-0.092 -0.107,-0.167 -0.236,-0.167c-0.13,0 -0.262,-0.056 -0.292,-0.125c-0.08,-0.179 -1.433,-1.041 -1.635,-1.041c-0.094,0 -0.171,-0.075 -0.171,-0.167c0,-0.092 -0.118,-0.167 -0.262,-0.167c-0.144,0 -0.366,-0.093 -0.494,-0.208c-0.518,-0.465 -0.707,-0.592 -1.296,-0.871c-0.338,-0.161 -0.614,-0.352 -0.614,-0.426c0,-0.074 -0.22,-0.183 -0.489,-0.242c-0.268,-0.059 -0.578,-0.215 -0.687,-0.347c-0.109,-0.131 -0.339,-0.239 -0.511,-0.239c-0.173,0 -0.313,-0.075 -0.313,-0.167c0,-0.091 -0.113,-0.166 -0.25,-0.166c-0.138,0 -0.25,-0.069 -0.25,-0.153c0,-0.084 -0.338,-0.282 -0.75,-0.44c-0.413,-0.157 -0.75,-0.351 -0.75,-0.43c0,-0.079 -0.084,-0.144 -0.185,-0.144c-0.251,0 -2.718,-1.216 -2.788,-1.374c-0.03,-0.069 -0.128,-0.126 -0.217,-0.126c-0.2,0 -3.028,-1.206 -3.144,-1.341c-0.046,-0.053 -0.533,-0.235 -1.083,-0.403c-0.55,-0.169 -1.038,-0.352 -1.083,-0.407c-0.204,-0.242 -0.865,-0.516 -1.248,-0.516c-0.23,0 -0.419,-0.066 -0.419,-0.148c0,-0.081 -0.28,-0.2 -0.622,-0.265c-0.342,-0.064 -0.773,-0.201 -0.958,-0.304c-0.185,-0.103 -0.374,-0.197 -0.42,-0.208c-0.211,-0.051 -0.777,-0.28 -1.039,-0.42c-0.16,-0.085 -0.516,-0.155 -0.792,-0.155c-0.276,0 -0.502,-0.068 -0.502,-0.152c0,-0.083 -0.319,-0.204 -0.709,-0.267c-0.389,-0.064 -1.046,-0.248 -1.458,-0.408c-1.235,-0.481 -1.915,-0.673 -2.387,-0.673c-0.245,0 -0.446,-0.075 -0.446,-0.166c0,-0.092 -0.057,-0.154 -0.125,-0.138c-0.277,0.063 -1.709,-0.242 -1.709,-0.364c0,-0.073 -0.318,-0.169 -0.708,-0.216c-1.561,-0.186 -4.38,-0.687 -4.458,-0.792c-0.131,-0.175 -2.276,-0.516 -3.792,-0.603c-0.756,-0.043 -1.375,-0.14 -1.375,-0.214c0,-0.075 -0.919,-0.191 -2.042,-0.258c-1.123,-0.067 -2.089,-0.197 -2.147,-0.289c-0.108,-0.171 -11.809,-0.312 -15.019,-0.181" id="path1"/>
   <path fill-rule="evenodd" fill="#000000" id="path2"/>
   <path fill-rule="evenodd" fill="#000000" id="path3"/>
   <path fill-rule="evenodd" fill="#000000" id="path4"/>
  </g>
 </g>
</svg>